<?xml version="1.0" encoding="utf-8"?>
<!-- Generator: Adobe Illustrator 25.0.1, SVG Export Plug-In . SVG Version: 6.00 Build 0)  -->
<svg version="1.0" id="Layer_1" xmlns="http://www.w3.org/2000/svg" xmlns:xlink="http://www.w3.org/1999/xlink" x="0px" y="0px"
	 viewBox="0 0 1165.5 726.4" style="enable-background:new 0 0 1165.5 726.4;" xml:space="preserve">
<g id="BLOCK_x5F_RECORD_2_">
	<polygon points="124.1,338.7 156.8,398 194.6,398.1 226.8,338.7 242.9,338.7 242.9,327.9 194.4,327.9 194.4,338.7 208.4,338.7 
		185,381.9 161.3,338.7 178.3,338.7 178.3,327.9 108.1,327.9 108.1,338.7 	"/>
	<path d="M540.5,338.6l0-10.7l64.8,0v10.7h-16.1v48.5h15c13.9,0,23-9.2,23-21.6h10.7V398l-97.3,0v-10.9h16.3l0-48.5H540.5z"/>
	<g>
		<path d="M383.4,326.4c-32.5,0-49.8,16.2-49.8,36.6c0,20.6,16.6,37.1,50,37.1c33.4,0,49.8-16.5,49.8-37.1
			C433.4,342.7,415.9,326.4,383.4,326.4z M383,389c-11.9-0.2-17.1-13.3-16.9-26.4c0.2-13.5,6.7-25.3,17.8-25.1
			c11.1,0.2,17,12.2,16.8,25.7C400.5,375.9,395.2,389.2,383,389z"/>
	</g>
	<polygon points="748.2,338.7 780.9,398 818.7,398.1 850.9,338.7 867,338.7 867,327.9 818.5,327.9 818.5,338.7 832.5,338.7 
		809.1,381.9 785.4,338.7 802.4,338.7 802.4,327.9 732.2,327.9 732.1,338.7 	"/>
	<g>
		<path d="M1007.5,326.4c-32.5,0-49.8,16.2-49.8,36.6c0,20.6,16.6,37.1,50,37.1c33.4,0,49.8-16.5,49.8-37.1
			C1057.5,342.7,1040,326.4,1007.5,326.4z M1007.1,389c-11.9-0.2-17.1-13.3-16.9-26.4c0.2-13.5,6.7-25.3,17.8-25.1
			c11.1,0.2,17,12.2,16.8,25.7C1024.6,375.9,1019.3,389.2,1007.1,389z"/>
	</g>
</g>
</svg>
